<svg width="24" height="24" viewBox="0 0 24 24" fill="none" xmlns="http://www.w3.org/2000/svg">
<path d="M5.62505 6.65005C5.34172 6.65005 5.10422 6.55005 4.91255 6.35005C4.72088 6.15005 4.62505 5.90838 4.62505 5.62505C4.62505 5.34172 4.72088 5.10422 4.91255 4.91255C5.10422 4.72088 5.34172 4.62505 5.62505 4.62505C5.90838 4.62505 6.15005 4.72088 6.35005 4.91255C6.55005 5.10422 6.65005 5.34172 6.65005 5.62505C6.65005 5.90838 6.55005 6.15005 6.35005 6.35005C6.15005 6.55005 5.90838 6.65005 5.62505 6.65005ZM9.67505 4.32505C9.39172 4.32505 9.15005 4.22505 8.95005 4.02505C8.75005 3.82505 8.65005 3.58338 8.65005 3.30005C8.65005 3.01672 8.75005 2.77922 8.95005 2.58755C9.15005 2.39588 9.39172 2.30005 9.67505 2.30005C9.95838 2.30005 10.1959 2.39588 10.3875 2.58755C10.5792 2.77922 10.675 3.01672 10.675 3.30005C10.675 3.58338 10.5792 3.82505 10.3875 4.02505C10.1959 4.22505 9.95838 4.32505 9.67505 4.32505ZM14.325 4.32505C14.0417 4.32505 13.8042 4.22505 13.6125 4.02505C13.4209 3.82505 13.325 3.58338 13.325 3.30005C13.325 3.01672 13.4209 2.77922 13.6125 2.58755C13.8042 2.39588 14.0417 2.30005 14.325 2.30005C14.6084 2.30005 14.85 2.39588 15.05 2.58755C15.25 2.77922 15.35 3.01672 15.35 3.30005C15.35 3.58338 15.25 3.82505 15.05 4.02505C14.85 4.22505 14.6084 4.32505 14.325 4.32505ZM18.375 6.65005C18.0917 6.65005 17.85 6.55005 17.65 6.35005C17.45 6.15005 17.35 5.90838 17.35 5.62505C17.35 5.34172 17.45 5.10005 17.65 4.90005C17.85 4.70005 18.0917 4.60005 18.375 4.60005C18.6584 4.60005 18.8959 4.70005 19.0875 4.90005C19.2792 5.10005 19.375 5.34172 19.375 5.62505C19.375 5.90838 19.2792 6.15005 19.0875 6.35005C18.8959 6.55005 18.6584 6.65005 18.375 6.65005ZM20.7 10.675C20.4167 10.675 20.1751 10.5792 19.975 10.3875C19.775 10.1959 19.675 9.95838 19.675 9.67505C19.675 9.39172 19.775 9.15422 19.975 8.96255C20.1751 8.77088 20.4167 8.67505 20.7 8.67505C20.9834 8.67505 21.2209 8.77088 21.4125 8.96255C21.6042 9.15422 21.7 9.39172 21.7 9.67505C21.7 9.95838 21.6042 10.1959 21.4125 10.3875C21.2209 10.5792 20.9834 10.675 20.7 10.675ZM20.7 15.35C20.4167 15.35 20.1751 15.25 19.975 15.05C19.775 14.85 19.675 14.6084 19.675 14.325C19.675 14.0417 19.775 13.8042 19.975 13.6125C20.1751 13.4209 20.4167 13.325 20.7 13.325C20.9834 13.325 21.2209 13.4209 21.4125 13.6125C21.6042 13.8042 21.7 14.0417 21.7 14.325C21.7 14.6084 21.6042 14.85 21.4125 15.05C21.2209 15.25 20.9834 15.35 20.7 15.35ZM18.375 19.375C18.0917 19.375 17.85 19.2792 17.65 19.0875C17.45 18.8959 17.35 18.6584 17.35 18.375C17.35 18.0917 17.45 17.85 17.65 17.65C17.85 17.45 18.0917 17.35 18.375 17.35C18.6584 17.35 18.8959 17.45 19.0875 17.65C19.2792 17.85 19.375 18.0917 19.375 18.375C19.375 18.6584 19.2792 18.8959 19.0875 19.0875C18.8959 19.2792 18.6584 19.375 18.375 19.375ZM14.325 21.7C14.0417 21.7 13.8042 21.6042 13.6125 21.4125C13.4209 21.2209 13.325 20.9834 13.325 20.7C13.325 20.4167 13.4209 20.1751 13.6125 19.975C13.8042 19.775 14.0417 19.675 14.325 19.675C14.6084 19.675 14.85 19.775 15.05 19.975C15.25 20.1751 15.35 20.4167 15.35 20.7C15.35 20.9834 15.25 21.2209 15.05 21.4125C14.85 21.6042 14.6084 21.7 14.325 21.7ZM9.67505 21.7C9.39172 21.7 9.15005 21.6042 8.95005 21.4125C8.75005 21.2209 8.65005 20.9834 8.65005 20.7C8.65005 20.4167 8.75005 20.1751 8.95005 19.975C9.15005 19.775 9.39172 19.675 9.67505 19.675C9.95838 19.675 10.1959 19.775 10.3875 19.975C10.5792 20.1751 10.675 20.4167 10.675 20.7C10.675 20.9834 10.5792 21.2209 10.3875 21.4125C10.1959 21.6042 9.95838 21.7 9.67505 21.7ZM5.62505 19.35C5.34172 19.35 5.10422 19.2542 4.91255 19.0625C4.72088 18.8709 4.62505 18.6334 4.62505 18.35C4.62505 18.0667 4.72088 17.8292 4.91255 17.6375C5.10422 17.4459 5.34172 17.35 5.62505 17.35C5.90838 17.35 6.14588 17.4459 6.33755 17.6375C6.52922 17.8292 6.62505 18.0667 6.62505 18.35C6.62505 18.6334 6.52922 18.8709 6.33755 19.0625C6.14588 19.2542 5.90838 19.35 5.62505 19.35ZM3.30005 15.325C3.01672 15.325 2.77922 15.225 2.58755 15.025C2.39588 14.825 2.30005 14.5834 2.30005 14.3C2.30005 14.0167 2.39588 13.7792 2.58755 13.5875C2.77922 13.3959 3.01672 13.3 3.30005 13.3C3.58338 13.3 3.82505 13.3959 4.02505 13.5875C4.22505 13.7792 4.32505 14.0167 4.32505 14.3C4.32505 14.5834 4.22505 14.825 4.02505 15.025C3.82505 15.225 3.58338 15.325 3.30005 15.325ZM3.30005 10.675C3.01672 10.675 2.77922 10.5792 2.58755 10.3875C2.39588 10.1959 2.30005 9.95838 2.30005 9.67505C2.30005 9.39172 2.39588 9.15005 2.58755 8.95005C2.77922 8.75005 3.01672 8.65005 3.30005 8.65005C3.58338 8.65005 3.82505 8.75005 4.02505 8.95005C4.22505 9.15005 4.32505 9.39172 4.32505 9.67505C4.32505 9.95838 4.22505 10.1959 4.02505 10.3875C3.82505 10.5792 3.58338 10.675 3.30005 10.675ZM13 11.6L16 14.6C16.1834 14.7834 16.275 15.0167 16.275 15.3C16.275 15.5834 16.1834 15.8167 16 16C15.8167 16.1834 15.5834 16.275 15.3 16.275C15.0167 16.275 14.7834 16.1834 14.6 16L11.3 12.7C11.2 12.6 11.125 12.4875 11.075 12.3625C11.025 12.2375 11 12.1084 11 11.975V8.00005C11 7.71672 11.0959 7.47922 11.2875 7.28755C11.4792 7.09588 11.7167 7.00005 12 7.00005C12.2834 7.00005 12.5209 7.09588 12.7125 7.28755C12.9042 7.47922 13 7.71672 13 8.00005V11.6Z" fill="#1C204F"/>
</svg>
